P1
# Created by GIMP version 2.10.12 PNM plug-in
64 64
0000000000000000000000000000000000000000000000000000000000000000000000
0000000000000000000000000000000000000000000000000000000000000000000000
0000000000000000000000000000000000000000000000000000000000000000000000
0000000000000000000000000000000000000000000000000000000000000000000000
0000000000000000000000000000000000000000000000000000000000000000000000
0000000000000000000000000000000000000000000000000000000000000000000000
0000000000000000000000000000000000000000000000000001111111111111000000
0000000000000000000000000000000000000000111111100000000011011100000000
0000000000000000000000000000000011110000000000000000000111000000000000
0000000000000000000000011110000000000000000000000000000000000000000000
0000000000000000110000000000000000000000000000000100000111000000000000
0000000011100000000000000000000000000000000111101001000000000000000000
0111100000000000000000000000000011101100001011000000000000000001110110
0000000010000000001111100110110110001100000000000000000011101110000010
0010000011100110010100100010001100100000000000000111101110000111101000
1111100100010111000010100111000000000000000111011100000100101000100010
0100010110011011100000000000000000001111011100000101101100100011010001
1011110000000000000000000000011101011100000111000100110011011000000000
0000000000000001100000011110111100000110000100011101000000000000000000
0000100011000000011110001100000010000101000000000000000000000001001111
0100000000111110110100000010000110000000000000000000000111001001011111
0000111110111000000010000000000011000000010111001100001110000001000011
1110111100000000000000000011000010011001001000001100000011000011111011
1100000000011000000000001101011001101000001101101100000010111011111000
0001111000011101001001011000101101110111000000000011011011111000001100
0000110001001110001000100111000000000000000011100101111000001100000110
0001001000101000000000000000000000000011111000111000001111100100000110
1111100000000000000000000000000011111101000000000110110110011010011100
0000000000000000000000000001111110111100000000110011110010000000000000
0000000000000000000001111110111100000001100000000000000000000000000000
0000000000000000111111011110000111000000000000000000000000000000000000
0000000000011111011110000000000000000000000000000000000000000000000000
0000011111101111000000000000000000000000000000000000000000000000000000
1100100111000000000000000000000000000000000000000000000000000000011100
0000000000001100110000000000000000000000000000000000000000001111100111
0000001100110001000000000000000000000000000000000000000011110011000000
0110000110000000000000000000000000000000000000000001111001100000011111
1110000000000000000000000000000000000000000000011110110000001111110000
0000000000000000000000000000000000000000000111101100001111100000000000
0000000000000000000000000000000000000000111110001111110000000000000000
0000000000000000000000000000000000000010011100110000000000000000000000
0000000000000000000000000000000001111000011000000000000000000000000000
0000000000000000000000000000000000011000000000000000000000000000000000
0000000000000000000000000000000000000000000000000000000000000000000000
0000000000000000000000000000000000000000000000000000000000000000000000
0000000000000000000000000000000000000000000000000000000000000000000000
0000000000000000000000000000000000000000000000000000000000000000000000
0000000000000000000000000000000000000000000000000000000000000000000000
0000000000000000000000000000000000000000000000000000000000000000000000
0000000000000000000000000000000000000000000000000000000000000000000000
0000000000000000000000000000000000000000000000000000000000000000000000
0000000000000000000000000000000000000000000000000000000000000000000000
0000000000000000000000000000000000000000000000000000000000000000000000
0000000000000000000000000000000000000000000000000000000000000000000000
0000000000000000000000000000000000000000000000000000000000000000000000
0000000000000000000000000000000000000000000000000000000000000000000000
0000000000000000000000000000000000000000000000000000000000000000000000
0000000000000000000000000000000000000000000000000000000000000000000000
000000000000000000000000000000000000